<svg width="128" height="128" viewBox="0 0 128 128" fill="none" xmlns="http://www.w3.org/2000/svg">
<path d="M36.277 25.0765C28.187 37.0499 20.4088 40.4743 15.0732 38.3277C16.5118 43.1889 26.8481 49.9269 33.4341 53.8032C36.2711 55.4727 37.0973 59.2761 35.1237 61.911C31.5117 66.7332 26.5117 73.5518 25.6751 75.4365C7.00065 109.332 48.1563 122.211 68.0825 120.494C126.774 115.437 124.683 69.6124 115.791 51.5824C94.4485 88.673 61.5057 67.2607 62.7816 59.5335C64.0575 51.8063 72.8327 53.3439 76.0339 40.9803C81.3696 16.5107 47.8693 4.93113 36.277 25.0765Z" fill="#146EF5"/>
<path d="M28.5462 18.5464C35.2392 7.04208 48.1494 4.75964 58.3259 8.5773C68.6146 12.4372 76.7511 22.7513 73.7153 36.6735C73.7071 36.7108 73.698 36.7481 73.6885 36.7851C71.863 43.8353 68.3296 47.0514 65.2811 49.4064C62.2375 51.7575 60.9018 52.5932 60.4915 55.0775C60.5088 54.973 60.4335 55.3755 61.0817 56.3652C61.678 57.2756 62.6907 58.3691 64.1239 59.4806C66.9841 61.6987 71.1848 63.7304 76.0433 64.4913C80.8655 65.2465 86.3032 64.7476 91.7583 61.9725C97.2189 59.1947 102.89 54.0363 107.997 45.1614L108.105 44.9881C108.672 44.1423 109.638 43.6415 110.666 43.6743C111.761 43.7094 112.748 44.3456 113.234 45.3288C117.979 54.9497 120.889 71.7964 114.82 87.0606C108.619 102.656 93.3397 115.909 63.1169 118.514C52.5929 119.42 36.6028 116.525 25.4909 108.821C19.8755 104.927 15.2989 99.6558 13.5258 92.8246C11.7499 85.9822 12.9136 78.0668 17.8078 69.1474C18.1411 68.4421 18.7036 67.5361 19.2934 66.6374C19.9647 65.6143 20.8044 64.4011 21.7172 63.1159C23.5447 60.5426 25.7154 57.609 27.5268 55.1906C28.4027 54.0208 28.0708 52.2249 26.7075 51.4227C23.3709 49.4589 19.0173 46.7319 15.2855 43.8433C13.4215 42.4004 11.6497 40.8702 10.2233 39.33C8.84491 37.8416 7.55912 36.1035 7.00495 34.2309C6.68172 33.1386 7.01194 31.9573 7.85468 31.1908C8.69744 30.4244 9.9046 30.2074 10.9614 30.6326C12.5616 31.2764 14.8735 31.248 17.9405 29.4834C21.0258 27.7082 24.6699 24.2671 28.5462 18.5464ZM56.24 14.1382C48.1344 11.0974 38.5484 13.0724 33.6308 21.6183C33.5952 21.6801 33.5569 21.7405 33.517 21.7996C29.3218 28.0085 25.05 32.2449 20.903 34.6311C19.2412 35.5872 17.5686 36.2585 15.922 36.6271C16.802 37.4436 17.814 38.2898 18.9207 39.1466C22.3632 41.8112 26.4707 44.3916 29.72 46.304L29.9194 46.4251C34.0707 49.0216 35.303 54.7162 32.2801 58.752C30.4795 61.1558 28.3441 64.0428 26.5596 66.5554C25.6664 67.8132 24.8734 68.9594 24.2591 69.8956C23.6045 70.8932 23.2658 71.4828 23.1687 71.7017C23.1342 71.7793 23.0965 71.8557 23.0556 71.93C18.6513 79.9243 17.9696 86.3018 19.2753 91.3325C20.5894 96.3953 24.0456 100.591 28.8754 103.94C38.6541 110.72 53.205 113.406 62.6072 112.596L63.9303 112.474C91.4804 109.762 104.178 97.7504 109.3 84.866C113.67 73.8752 112.729 61.7709 109.967 53.1294C105.183 59.9505 99.8935 64.4973 94.451 67.266C87.7667 70.6663 81.0465 71.2863 75.1247 70.3589C69.2393 69.4372 64.109 66.9846 60.4843 64.1737C58.6755 62.7709 57.1575 61.2137 56.1131 59.6191C55.121 58.1042 54.295 56.1471 54.6312 54.1104C55.4969 48.8677 59.1869 46.6088 61.6501 44.7061C64.101 42.8128 66.5464 40.6224 67.9245 35.3438C70.1866 24.8292 64.2494 17.1431 56.24 14.1382Z" fill="black"/>
<path d="M45.1528 76.6901C46.4874 75.7369 48.3423 76.0459 49.2956 77.3804C52.1499 81.3763 58.1281 85.6398 65.281 87.3139C72.3067 88.9582 80.259 88.0652 87.3856 82.1264C88.6455 81.0764 90.5183 81.2463 91.5682 82.5063C92.6181 83.7663 92.4476 85.639 91.1876 86.689C82.4114 94.0024 72.4731 95.0968 63.9274 93.0967C55.5089 91.1265 48.2345 86.1136 44.4626 80.8329C43.5093 79.4984 43.8183 77.6435 45.1528 76.6901Z" fill="white"/>
<path d="M44.3087 37.2854C47.2364 37.2854 49.6097 34.9121 49.6097 31.9845C49.6097 29.0569 47.2364 26.6836 44.3087 26.6836C41.3811 26.6836 39.0078 29.0569 39.0078 31.9845C39.0078 34.9121 41.3811 37.2854 44.3087 37.2854Z" fill="white"/>
</svg>
