<svg width="48" height="48" viewBox="0 0 48 48" fill="none" xmlns="http://www.w3.org/2000/svg">
<path d="M13.6037 9.40272C10.57 13.8927 7.65318 15.1769 5.65234 14.3719C6.19179 16.1949 10.0679 18.7216 12.5377 20.1752C13.6015 20.8013 13.9114 22.2276 13.1713 23.2156C11.8168 25.024 9.94176 27.5809 9.62804 28.2877C2.62512 40.9986 18.0585 45.8283 25.5308 45.1844C47.54 43.2877 46.7562 26.1037 43.4214 19.3424C35.4181 33.2514 23.0645 25.2218 23.543 22.3241C24.0214 19.4264 27.3121 20.003 28.5126 15.3666C30.5135 6.19053 17.9509 1.8482 13.6037 9.40272Z" fill="#146EF5"/>
<path d="M10.7048 6.95636C13.2147 2.64224 18.056 1.78633 21.8722 3.21795C25.7305 4.66543 28.7816 8.5332 27.6432 13.754C27.6402 13.768 27.6368 13.782 27.6332 13.7959C26.9486 16.4397 25.6236 17.6458 24.4804 18.5289C23.3391 19.4105 22.8382 19.7239 22.6843 20.6555C22.6908 20.6163 22.6626 20.7673 22.9056 21.1384C23.1293 21.4798 23.509 21.8899 24.0465 22.3067C25.119 23.1385 26.6943 23.9003 28.5163 24.1857C30.3246 24.4689 32.3637 24.2818 34.4094 23.2412C36.4571 22.1995 38.5837 20.2651 40.4988 16.937L40.5393 16.872C40.752 16.5548 41.1143 16.367 41.4996 16.3793C41.9105 16.3925 42.2807 16.6311 42.4626 16.9998C44.242 20.6076 45.3333 26.9251 43.0575 32.6492C40.7323 38.4973 35.0024 43.4674 23.6688 44.4441C19.7223 44.7841 13.7261 43.6984 9.5591 40.8093C7.4533 39.3492 5.73709 37.3724 5.07219 34.8107C4.40621 32.2448 4.84262 29.2765 6.67794 25.9317C6.80293 25.6673 7.01386 25.3275 7.23503 24.9905C7.48677 24.6068 7.80166 24.1519 8.14394 23.6699C8.82928 22.705 9.64327 21.6048 10.3226 20.698C10.651 20.2592 10.5266 19.5858 10.0153 19.285C8.7641 18.5485 7.13149 17.5259 5.73205 16.4427C5.03306 15.9016 4.36865 15.3278 3.83375 14.7502C3.31684 14.1921 2.83467 13.5403 2.62686 12.838C2.50564 12.4284 2.62948 11.9854 2.94551 11.698C3.26154 11.4106 3.71422 11.3292 4.11053 11.4887C4.71059 11.7301 5.57756 11.7195 6.72769 11.0577C7.88469 10.392 9.25121 9.10162 10.7048 6.95636ZM21.09 5.30331C18.0504 4.16297 14.4557 4.9036 12.6115 8.10834C12.5982 8.1315 12.5838 8.15417 12.5689 8.17631C10.9957 10.5047 9.39374 12.0933 7.83861 12.9881C7.21546 13.3467 6.58821 13.5984 5.97077 13.7366C6.30074 14.0428 6.68024 14.3602 7.09528 14.6814C8.38618 15.6807 9.92651 16.6483 11.145 17.3655L11.2198 17.4109C12.7765 18.3846 13.2386 20.52 12.105 22.0335C11.4298 22.9349 10.629 24.0175 9.95986 24.9597C9.62489 25.4314 9.32754 25.8613 9.09717 26.2123C8.85169 26.5864 8.72468 26.8075 8.68825 26.8896C8.67533 26.9187 8.66121 26.9473 8.64584 26.9752C6.99422 29.9731 6.73859 32.3646 7.22823 34.2511C7.72104 36.1497 9.01711 37.7232 10.8283 38.9789C14.4953 41.5214 19.9519 42.5288 23.4777 42.225L23.9739 42.1793C34.3052 41.1622 39.0666 36.6579 40.9876 31.8262C42.6263 27.7047 42.2732 23.1656 41.2375 19.925C39.4437 22.4829 37.4601 24.1879 35.4191 25.2262C32.9125 26.5013 30.3924 26.7338 28.1718 26.3861C25.9647 26.0404 24.0409 25.1207 22.6816 24.0666C22.0033 23.5406 21.4341 22.9566 21.0424 22.3586C20.6704 21.7906 20.3606 21.0566 20.4867 20.2928C20.8113 18.3268 22.1951 17.4798 23.1188 16.7662C24.0379 16.0563 24.9549 15.2349 25.4717 13.2554C26.32 9.3124 24.0935 6.43011 21.09 5.30331Z" fill="black"/>
<path d="M16.9322 28.7583C17.4327 28.4008 18.1282 28.5167 18.4857 29.0171C19.5561 30.5156 21.7979 32.1145 24.4802 32.7422C27.1149 33.3588 30.097 33.024 32.7695 30.7969C33.242 30.4032 33.9442 30.4669 34.338 30.9394C34.7317 31.4119 34.6677 32.1141 34.1952 32.5079C30.9042 35.2504 27.1773 35.6608 23.9726 34.9108C20.8157 34.1719 18.0878 32.2921 16.6734 30.3119C16.3159 29.8114 16.4317 29.1158 16.9322 28.7583Z" fill="white"/>
<path d="M16.6158 13.9835C17.7136 13.9835 18.6036 13.0935 18.6036 11.9957C18.6036 10.8978 17.7136 10.0078 16.6158 10.0078C15.5179 10.0078 14.6279 10.8978 14.6279 11.9957C14.6279 13.0935 15.5179 13.9835 16.6158 13.9835Z" fill="white"/>
</svg>
