<svg width="16" height="16" viewBox="0 0 16 16" fill="none" xmlns="http://www.w3.org/2000/svg">
<g clip-path="url(#clip0_1230_78)">
<path d="M4.53425 3.13554C3.52301 4.63221 2.55074 5.06026 1.88379 4.79194C2.0636 5.39959 3.35565 6.24184 4.17889 6.72638C4.53352 6.93507 4.63679 7.41049 4.3901 7.73985C3.93859 8.34263 3.31359 9.19495 3.20902 9.43054C0.874715 13.6675 6.01917 15.2774 8.50995 15.0628C15.8463 14.4305 15.5851 8.70253 14.4735 6.44877C11.8057 11.0851 7.68784 8.40856 7.84733 7.44266C8.00682 6.47677 9.10372 6.66896 9.50387 5.12351C10.1708 2.06481 5.98329 0.617368 4.53425 3.13554Z" fill="#146EF5"/>
<path d="M3.56827 2.31879C4.4049 0.880748 6.01868 0.595443 7.29074 1.07265C8.57683 1.55514 9.59388 2.8444 9.21441 4.58467C9.21339 4.58934 9.21226 4.59401 9.21106 4.59863C8.98287 5.4799 8.54121 5.88192 8.16013 6.17629C7.77968 6.47018 7.61273 6.57464 7.56144 6.88518C7.5636 6.87212 7.55419 6.92242 7.63521 7.04614C7.70975 7.15993 7.83633 7.29663 8.01549 7.43557C8.37301 7.71282 8.8981 7.96678 9.50542 8.0619C10.1082 8.1563 10.7879 8.09393 11.4698 7.74706C12.1524 7.39982 12.8612 6.75502 13.4996 5.64566L13.5131 5.624C13.584 5.51827 13.7048 5.45567 13.8332 5.45978C13.9702 5.46417 14.0936 5.54369 14.1542 5.66659C14.7473 6.8692 15.1111 8.97504 14.3525 10.8831C13.5774 12.8324 11.6675 14.4891 7.88961 14.8147C6.57411 14.928 4.57535 14.5661 3.18637 13.6031C2.48443 13.1164 1.91236 12.4575 1.69073 11.6036C1.46874 10.7483 1.61421 9.75883 2.22598 8.64391C2.26764 8.55576 2.33795 8.44251 2.41168 8.33016C2.49559 8.20228 2.60055 8.05062 2.71465 7.88998C2.94309 7.56832 3.21442 7.20161 3.44085 6.89932C3.55034 6.75308 3.50885 6.52861 3.33844 6.42832C2.92137 6.18285 2.37716 5.84198 1.91068 5.4809C1.67769 5.30054 1.45622 5.10926 1.27792 4.91674C1.10561 4.73069 0.94489 4.51342 0.875619 4.27935C0.835215 4.14281 0.876492 3.99515 0.981835 3.89934C1.08718 3.80354 1.23807 3.77641 1.37018 3.82956C1.5702 3.91003 1.85919 3.90649 2.24256 3.68591C2.62823 3.46401 3.08374 3.03387 3.56827 2.31879ZM7.03 1.76777C6.0168 1.38766 4.81855 1.63453 4.20385 2.70278C4.19941 2.7105 4.19461 2.71806 4.18962 2.72544C3.66522 3.50156 3.13125 4.03111 2.61287 4.32937C2.40515 4.44889 2.19607 4.5328 1.99026 4.57887C2.10025 4.68094 2.22675 4.78672 2.36509 4.89381C2.79539 5.22689 3.30884 5.54943 3.715 5.78849L3.73992 5.80362C4.25883 6.12819 4.41287 6.84001 4.03501 7.34449C3.80994 7.64496 3.54301 8.00584 3.31995 8.31992C3.2083 8.47713 3.10918 8.62042 3.03239 8.73744C2.95056 8.86214 2.90823 8.93584 2.89608 8.9632C2.89178 8.9729 2.88707 8.98245 2.88195 8.99174C2.33141 9.99103 2.2462 10.7882 2.40941 11.417C2.57368 12.0499 3.0057 12.5744 3.60942 12.993C4.83177 13.8405 6.65062 14.1763 7.8259 14.075L7.99129 14.0598C11.4351 13.7207 13.0222 12.2193 13.6625 10.6087C14.2088 9.23489 14.0911 7.72185 13.7458 6.64166C13.1479 7.4943 12.4867 8.06265 11.8064 8.40873C10.9708 8.83378 10.1308 8.91127 9.39059 8.79535C8.65492 8.68014 8.01362 8.37357 7.56054 8.0222C7.33443 7.84686 7.14469 7.6522 7.01414 7.45288C6.89012 7.26352 6.78687 7.01887 6.8289 6.76428C6.93711 6.10895 7.39837 5.82659 7.70627 5.58874C8.01262 5.35209 8.3183 5.07829 8.49056 4.41846C8.77332 3.10413 8.03117 2.14337 7.03 1.76777Z" fill="black"/>
<path d="M5.64374 9.5848C5.81056 9.46564 6.04242 9.50427 6.16159 9.67108C6.51837 10.1706 7.26564 10.7035 8.15976 10.9128C9.03797 11.1183 10.032 11.0067 10.9228 10.2643C11.0803 10.1331 11.3144 10.1543 11.4457 10.3118C11.5769 10.4693 11.5556 10.7034 11.3981 10.8347C10.3011 11.7488 9.05877 11.8856 7.99055 11.6356C6.93825 11.3893 6.02895 10.7627 5.55746 10.1027C5.4383 9.93583 5.47692 9.70397 5.64374 9.5848Z" fill="white"/>
<path d="M5.53859 4.66117C5.90455 4.66117 6.20121 4.36451 6.20121 3.99855C6.20121 3.6326 5.90455 3.33594 5.53859 3.33594C5.17264 3.33594 4.87598 3.6326 4.87598 3.99855C4.87598 4.36451 5.17264 4.66117 5.53859 4.66117Z" fill="white"/>
</g>
<defs>
<clipPath id="clip0_1230_78">
<rect width="16" height="16" fill="white"/>
</clipPath>
</defs>
</svg>
