<svg width="512" height="512" viewBox="0 0 512 512" fill="none" xmlns="http://www.w3.org/2000/svg">
<path d="M145.107 100.31C112.747 148.203 81.6343 161.901 60.292 153.315C66.046 172.759 107.391 199.711 133.735 215.217C145.083 221.895 148.388 237.108 140.494 247.648C126.046 266.937 106.046 294.211 102.699 301.75C28.0016 437.333 192.624 488.85 272.329 481.982C507.093 461.75 498.733 278.454 463.162 206.333C377.793 354.696 246.022 269.047 251.125 238.138C256.229 207.229 291.33 213.379 304.135 163.925C325.477 66.0467 191.476 19.7284 145.107 100.31Z" fill="#146EF5"/>
<path d="M114.184 74.1856C140.956 28.1683 192.597 19.0385 233.303 34.3092C274.458 49.7489 307.003 91.0052 294.86 146.694C294.828 146.843 294.791 146.993 294.753 147.141C287.451 175.341 273.318 188.206 261.123 197.626C248.949 207.03 243.606 210.373 241.965 220.31C242.034 219.892 241.733 221.502 244.326 225.461C246.711 229.102 250.762 233.476 256.495 237.923C267.935 246.795 284.738 254.921 304.172 257.965C323.461 260.986 345.212 258.99 367.032 247.89C388.874 236.779 411.559 216.145 431.986 180.645L432.418 179.952C434.687 176.569 438.551 174.566 442.661 174.697C447.044 174.838 450.993 177.383 452.933 181.315C471.914 219.799 483.554 287.186 459.279 348.242C434.477 410.623 373.358 463.637 252.466 474.055C210.371 477.682 146.41 466.1 101.963 435.283C79.5009 419.709 61.1947 398.623 54.1024 371.298C46.9986 343.929 51.6536 312.267 71.2304 276.59C72.5636 273.769 74.8135 270.145 77.1727 266.549C79.8579 262.457 83.2168 257.604 86.8677 252.464C94.178 242.171 102.861 230.436 110.106 220.763C113.61 216.083 112.282 208.9 106.829 205.691C93.4827 197.835 76.0682 186.928 61.1409 175.373C53.685 169.602 46.598 163.481 40.8924 157.32C35.3786 151.366 30.2355 144.414 28.0188 136.924C26.7259 132.554 28.0468 127.829 31.4178 124.763C34.7888 121.698 39.6174 120.83 43.8447 122.53C50.2453 125.105 59.493 124.992 71.7611 117.934C84.1024 110.833 98.6786 97.0684 114.184 74.1856ZM224.959 56.553C192.537 44.3894 154.193 52.2895 134.522 86.4733C134.38 86.7204 134.226 86.9622 134.067 87.1984C117.286 112.034 100.199 128.98 83.6109 138.524C76.964 142.349 70.2733 145.034 63.6872 146.508C67.2069 149.774 71.2549 153.159 75.682 156.586C89.4517 167.245 105.882 177.566 118.879 185.216L119.677 185.7C136.282 196.086 141.211 218.865 129.119 235.008C121.917 244.623 113.375 256.171 106.238 266.222C102.664 271.253 99.4928 275.838 97.0355 279.582C94.4171 283.573 93.0623 285.931 92.6737 286.807C92.5359 287.117 92.3852 287.423 92.2213 287.72C74.6041 319.697 71.8773 345.207 77.1002 365.33C82.3568 385.581 96.1816 402.365 115.5 415.76C154.616 442.88 212.819 453.625 250.428 450.384L255.72 449.897C365.921 439.048 416.709 391.002 437.2 339.464C454.679 295.501 450.914 247.084 439.865 212.518C420.732 239.802 399.573 257.989 377.803 269.064C351.066 282.665 324.185 285.145 300.498 281.436C276.956 277.749 256.435 267.939 241.936 256.695C234.701 251.084 228.629 244.855 224.451 238.476C220.483 232.417 217.179 224.588 218.524 216.441C221.986 195.471 236.747 186.435 246.6 178.824C256.403 171.251 266.185 162.49 271.697 141.375C280.745 99.3166 256.997 68.5722 224.959 56.553Z" fill="black"/>
<path d="M180.61 306.764C185.949 302.951 193.368 304.187 197.181 309.525C208.598 325.509 232.511 342.563 261.123 349.26C289.226 355.837 321.035 352.265 349.541 328.509C354.581 324.31 362.072 324.989 366.272 330.029C370.472 335.069 369.789 342.56 364.749 346.76C329.645 376.014 289.891 380.391 255.708 372.391C222.035 364.51 192.937 344.458 177.849 323.336C174.036 317.997 175.272 310.578 180.61 306.764Z" fill="white"/>
<path d="M177.235 149.138C188.945 149.138 198.439 139.645 198.439 127.934C198.439 116.224 188.945 106.73 177.235 106.73C165.524 106.73 156.031 116.224 156.031 127.934C156.031 139.645 165.524 149.138 177.235 149.138Z" fill="white"/>
</svg>
