<svg width="512" height="512" viewBox="0 0 512 512" fill="none" xmlns="http://www.w3.org/2000/svg">
<path d="M160.236 121.656C132.34 162.942 105.52 174.749 87.1221 167.348C92.0823 184.11 127.724 207.343 150.433 220.71C160.216 226.466 163.064 239.581 156.259 248.666C143.804 265.294 126.564 288.806 123.679 295.305C59.2865 412.182 201.198 456.591 269.906 450.671C472.282 433.231 465.075 275.222 434.412 213.052C360.82 340.946 247.228 267.113 251.628 240.468C256.027 213.824 286.285 219.126 297.324 176.494C315.722 92.1192 200.208 52.1911 160.236 121.656Z" fill="#146EF5"/>
<path d="M133.579 99.1371C156.657 59.4685 201.174 51.5983 236.264 64.7622C271.741 78.0718 299.796 113.636 289.329 161.642C289.3 161.771 289.269 161.9 289.236 162.027C282.941 186.337 270.758 197.427 260.246 205.547C249.751 213.654 245.146 216.536 243.731 225.102C243.791 224.742 243.531 226.129 245.766 229.542C247.822 232.681 251.314 236.452 256.256 240.285C266.118 247.933 280.603 254.938 297.356 257.562C313.984 260.166 332.734 258.446 351.544 248.877C370.372 239.299 389.927 221.512 407.536 190.91L407.909 190.312C409.865 187.396 413.196 185.669 416.739 185.782C420.517 185.903 423.921 188.097 425.594 191.487C441.955 224.661 451.99 282.751 431.064 335.385C409.683 389.159 356.996 434.859 252.784 443.84C216.495 446.966 161.359 436.983 123.044 410.417C103.681 396.992 87.8999 378.815 81.786 355.26C75.6623 331.666 79.6751 304.373 96.551 273.617C97.7003 271.185 99.6399 268.061 101.674 264.962C103.988 261.435 106.884 257.251 110.031 252.82C116.333 243.947 123.817 233.831 130.064 225.492C133.084 221.458 131.939 215.266 127.239 212.5C115.733 205.728 100.721 196.325 87.8535 186.365C81.4263 181.39 75.317 176.113 70.3985 170.802C65.6455 165.67 61.2119 159.677 59.301 153.22C58.1865 149.453 59.3251 145.38 62.231 142.737C65.137 140.094 69.2995 139.346 72.9435 140.812C78.4611 143.032 86.4329 142.934 97.0085 136.85C107.647 130.728 120.212 118.863 133.579 99.1371ZM229.071 83.9372C201.122 73.4517 168.068 80.2618 151.111 109.73C150.988 109.943 150.856 110.151 150.719 110.355C136.253 131.764 121.523 146.372 107.224 154.6C101.494 157.897 95.726 160.211 90.0485 161.482C93.0827 164.298 96.5722 167.216 100.389 170.17C112.258 179.358 126.422 188.255 137.626 194.85L138.314 195.267C152.628 204.22 156.877 223.856 146.454 237.772C140.245 246.061 132.882 256.016 126.729 264.68C123.648 269.017 120.914 272.969 118.796 276.197C116.539 279.637 115.371 281.67 115.036 282.425C114.917 282.692 114.787 282.956 114.646 283.212C99.4593 310.778 97.1088 332.768 101.611 350.115C106.142 367.572 118.06 382.041 134.714 393.587C168.432 416.965 218.606 426.228 251.026 423.435L255.589 423.015C350.585 413.662 394.367 372.245 412.031 327.817C427.099 289.919 423.853 248.182 414.329 218.385C397.835 241.905 379.595 257.583 360.829 267.13C337.78 278.855 314.608 280.992 294.189 277.795C273.895 274.616 256.204 266.16 243.706 256.467C237.469 251.63 232.235 246.26 228.634 240.762C225.212 235.539 222.364 228.79 223.524 221.767C226.509 203.69 239.233 195.901 247.726 189.34C256.177 182.812 264.609 175.259 269.361 157.057C277.161 120.801 256.689 94.2982 229.071 83.9372Z" fill="black"/>
<path d="M190.841 299.627C195.443 296.34 201.839 297.405 205.126 302.007C214.968 315.786 235.582 330.487 260.246 336.26C284.472 341.929 311.893 338.85 336.466 318.372C340.811 314.752 347.268 315.337 350.888 319.682C354.509 324.027 353.92 330.484 349.576 334.105C319.314 359.322 285.046 363.096 255.578 356.2C226.55 349.406 201.467 332.12 188.461 313.912C185.174 309.31 186.239 302.914 190.841 299.627Z" fill="white"/>
<path d="M187.931 163.748C198.026 163.748 206.209 155.565 206.209 145.47C206.209 135.375 198.026 127.191 187.931 127.191C177.836 127.191 169.652 135.375 169.652 145.47C169.652 155.565 177.836 163.748 187.931 163.748Z" fill="white"/>
</svg>
